<mxfile host="app.diagrams.net" agent="Mozilla/5.0 (Windows NT 10.0; Win64; x64) AppleWebKit/537.36 (KHTML, like Gecko) Chrome/131.0.0.0 Safari/537.36" version="25.0.3" pages="3">
  <diagram name="1-100" id="nwkDWNNsLs-eIAhTOjAt">
    <mxGraphModel dx="1509" dy="821" grid="1" gridSize="10" guides="1" tooltips="1" connect="1" arrows="1" fold="1" page="1" pageScale="1" pageWidth="1169" pageHeight="827" math="0" shadow="0">
      <root>
        <mxCell id="0" />
        <mxCell id="1" parent="0" />
        <mxCell id="2e0UfcYSNs-ZiBZ8ll8G-5" style="edgeStyle=orthogonalEdgeStyle;rounded=0;orthogonalLoop=1;jettySize=auto;html=1;" edge="1" parent="1" source="2e0UfcYSNs-ZiBZ8ll8G-1" target="2e0UfcYSNs-ZiBZ8ll8G-4">
          <mxGeometry relative="1" as="geometry" />
        </mxCell>
        <mxCell id="2e0UfcYSNs-ZiBZ8ll8G-1" value="INICIO" style="strokeWidth=2;html=1;shape=mxgraph.flowchart.start_1;whiteSpace=wrap;" vertex="1" parent="1">
          <mxGeometry x="535" y="50" width="100" height="60" as="geometry" />
        </mxCell>
        <mxCell id="2e0UfcYSNs-ZiBZ8ll8G-2" value="FIM" style="strokeWidth=2;html=1;shape=mxgraph.flowchart.start_1;whiteSpace=wrap;rotation=1;" vertex="1" parent="1">
          <mxGeometry x="530" y="570" width="100" height="60" as="geometry" />
        </mxCell>
        <mxCell id="2e0UfcYSNs-ZiBZ8ll8G-7" style="edgeStyle=orthogonalEdgeStyle;rounded=0;orthogonalLoop=1;jettySize=auto;html=1;" edge="1" parent="1" source="2e0UfcYSNs-ZiBZ8ll8G-4" target="2e0UfcYSNs-ZiBZ8ll8G-6">
          <mxGeometry relative="1" as="geometry" />
        </mxCell>
        <mxCell id="2e0UfcYSNs-ZiBZ8ll8G-4" value="NUM" style="shape=parallelogram;html=1;strokeWidth=2;perimeter=parallelogramPerimeter;whiteSpace=wrap;rounded=1;arcSize=12;size=0.23;" vertex="1" parent="1">
          <mxGeometry x="535" y="150" width="100" height="40" as="geometry" />
        </mxCell>
        <mxCell id="2e0UfcYSNs-ZiBZ8ll8G-9" style="edgeStyle=orthogonalEdgeStyle;rounded=0;orthogonalLoop=1;jettySize=auto;html=1;" edge="1" parent="1" source="2e0UfcYSNs-ZiBZ8ll8G-6" target="2e0UfcYSNs-ZiBZ8ll8G-8">
          <mxGeometry relative="1" as="geometry" />
        </mxCell>
        <mxCell id="2e0UfcYSNs-ZiBZ8ll8G-6" value="CONTADOR = 1" style="rounded=1;whiteSpace=wrap;html=1;absoluteArcSize=1;arcSize=14;strokeWidth=2;" vertex="1" parent="1">
          <mxGeometry x="510" y="230" width="150" height="30" as="geometry" />
        </mxCell>
        <mxCell id="2e0UfcYSNs-ZiBZ8ll8G-11" style="edgeStyle=orthogonalEdgeStyle;rounded=0;orthogonalLoop=1;jettySize=auto;html=1;" edge="1" parent="1" source="2e0UfcYSNs-ZiBZ8ll8G-8" target="2e0UfcYSNs-ZiBZ8ll8G-10">
          <mxGeometry relative="1" as="geometry" />
        </mxCell>
        <mxCell id="2e0UfcYSNs-ZiBZ8ll8G-17" value="V" style="edgeLabel;html=1;align=center;verticalAlign=middle;resizable=0;points=[];" vertex="1" connectable="0" parent="2e0UfcYSNs-ZiBZ8ll8G-11">
          <mxGeometry x="0.2271" y="1" relative="1" as="geometry">
            <mxPoint x="-1" y="-2" as="offset" />
          </mxGeometry>
        </mxCell>
        <mxCell id="2e0UfcYSNs-ZiBZ8ll8G-8" value="CONTADOR &amp;lt;= 100" style="strokeWidth=2;html=1;shape=mxgraph.flowchart.decision;whiteSpace=wrap;" vertex="1" parent="1">
          <mxGeometry x="500" y="290" width="170" height="50" as="geometry" />
        </mxCell>
        <mxCell id="2e0UfcYSNs-ZiBZ8ll8G-13" style="edgeStyle=orthogonalEdgeStyle;rounded=0;orthogonalLoop=1;jettySize=auto;html=1;" edge="1" parent="1" source="2e0UfcYSNs-ZiBZ8ll8G-10" target="2e0UfcYSNs-ZiBZ8ll8G-12">
          <mxGeometry relative="1" as="geometry" />
        </mxCell>
        <mxCell id="2e0UfcYSNs-ZiBZ8ll8G-10" value="RES = NUM * CONTADOR" style="rounded=1;whiteSpace=wrap;html=1;absoluteArcSize=1;arcSize=14;strokeWidth=2;" vertex="1" parent="1">
          <mxGeometry x="480" y="378" width="210" height="36" as="geometry" />
        </mxCell>
        <mxCell id="2e0UfcYSNs-ZiBZ8ll8G-15" style="edgeStyle=orthogonalEdgeStyle;rounded=0;orthogonalLoop=1;jettySize=auto;html=1;" edge="1" parent="1" source="2e0UfcYSNs-ZiBZ8ll8G-12" target="2e0UfcYSNs-ZiBZ8ll8G-14">
          <mxGeometry relative="1" as="geometry" />
        </mxCell>
        <mxCell id="2e0UfcYSNs-ZiBZ8ll8G-12" value="RES" style="strokeWidth=2;html=1;shape=mxgraph.flowchart.display;whiteSpace=wrap;" vertex="1" parent="1">
          <mxGeometry x="535" y="440" width="100" height="40" as="geometry" />
        </mxCell>
        <mxCell id="2e0UfcYSNs-ZiBZ8ll8G-14" value="ADD 1 TO CONTADOR" style="rounded=1;whiteSpace=wrap;html=1;absoluteArcSize=1;arcSize=14;strokeWidth=2;" vertex="1" parent="1">
          <mxGeometry x="485" y="511" width="200" height="30" as="geometry" />
        </mxCell>
        <mxCell id="2e0UfcYSNs-ZiBZ8ll8G-16" style="edgeStyle=orthogonalEdgeStyle;rounded=0;orthogonalLoop=1;jettySize=auto;html=1;entryX=0;entryY=0.5;entryDx=0;entryDy=0;entryPerimeter=0;" edge="1" parent="1" source="2e0UfcYSNs-ZiBZ8ll8G-14" target="2e0UfcYSNs-ZiBZ8ll8G-8">
          <mxGeometry relative="1" as="geometry">
            <Array as="points">
              <mxPoint x="430" y="525" />
              <mxPoint x="430" y="315" />
            </Array>
          </mxGeometry>
        </mxCell>
        <mxCell id="2e0UfcYSNs-ZiBZ8ll8G-20" style="edgeStyle=orthogonalEdgeStyle;rounded=0;orthogonalLoop=1;jettySize=auto;html=1;entryX=1;entryY=0.5;entryDx=0;entryDy=0;entryPerimeter=0;" edge="1" parent="1" source="2e0UfcYSNs-ZiBZ8ll8G-8" target="2e0UfcYSNs-ZiBZ8ll8G-2">
          <mxGeometry relative="1" as="geometry">
            <Array as="points">
              <mxPoint x="740" y="315" />
              <mxPoint x="740" y="600" />
              <mxPoint x="630" y="600" />
            </Array>
          </mxGeometry>
        </mxCell>
        <mxCell id="2e0UfcYSNs-ZiBZ8ll8G-21" value="F" style="edgeLabel;html=1;align=center;verticalAlign=middle;resizable=0;points=[];" vertex="1" connectable="0" parent="2e0UfcYSNs-ZiBZ8ll8G-20">
          <mxGeometry x="-0.889" y="-2" relative="1" as="geometry">
            <mxPoint as="offset" />
          </mxGeometry>
        </mxCell>
      </root>
    </mxGraphModel>
  </diagram>
  <diagram id="QNuVY-JIjkBaqLygIQVt" name="100-1">
    <mxGraphModel dx="1434" dy="780" grid="1" gridSize="10" guides="1" tooltips="1" connect="1" arrows="1" fold="1" page="1" pageScale="1" pageWidth="1169" pageHeight="827" math="0" shadow="0">
      <root>
        <mxCell id="0" />
        <mxCell id="1" parent="0" />
        <mxCell id="scVFtFbxgIvjFgvuP5Op-1" style="edgeStyle=orthogonalEdgeStyle;rounded=0;orthogonalLoop=1;jettySize=auto;html=1;" edge="1" parent="1" source="scVFtFbxgIvjFgvuP5Op-2" target="scVFtFbxgIvjFgvuP5Op-5">
          <mxGeometry relative="1" as="geometry" />
        </mxCell>
        <mxCell id="scVFtFbxgIvjFgvuP5Op-2" value="INICIO" style="strokeWidth=2;html=1;shape=mxgraph.flowchart.start_1;whiteSpace=wrap;" vertex="1" parent="1">
          <mxGeometry x="535" y="50" width="100" height="60" as="geometry" />
        </mxCell>
        <mxCell id="scVFtFbxgIvjFgvuP5Op-3" value="FIM" style="strokeWidth=2;html=1;shape=mxgraph.flowchart.start_1;whiteSpace=wrap;rotation=1;" vertex="1" parent="1">
          <mxGeometry x="530" y="570" width="100" height="60" as="geometry" />
        </mxCell>
        <mxCell id="scVFtFbxgIvjFgvuP5Op-4" style="edgeStyle=orthogonalEdgeStyle;rounded=0;orthogonalLoop=1;jettySize=auto;html=1;" edge="1" parent="1" source="scVFtFbxgIvjFgvuP5Op-5" target="scVFtFbxgIvjFgvuP5Op-7">
          <mxGeometry relative="1" as="geometry" />
        </mxCell>
        <mxCell id="scVFtFbxgIvjFgvuP5Op-5" value="NUM" style="shape=parallelogram;html=1;strokeWidth=2;perimeter=parallelogramPerimeter;whiteSpace=wrap;rounded=1;arcSize=12;size=0.23;" vertex="1" parent="1">
          <mxGeometry x="535" y="150" width="100" height="40" as="geometry" />
        </mxCell>
        <mxCell id="scVFtFbxgIvjFgvuP5Op-6" style="edgeStyle=orthogonalEdgeStyle;rounded=0;orthogonalLoop=1;jettySize=auto;html=1;" edge="1" parent="1" source="scVFtFbxgIvjFgvuP5Op-7" target="scVFtFbxgIvjFgvuP5Op-10">
          <mxGeometry relative="1" as="geometry" />
        </mxCell>
        <mxCell id="scVFtFbxgIvjFgvuP5Op-7" value="CONTADOR = 100" style="rounded=1;whiteSpace=wrap;html=1;absoluteArcSize=1;arcSize=14;strokeWidth=2;" vertex="1" parent="1">
          <mxGeometry x="510" y="230" width="150" height="30" as="geometry" />
        </mxCell>
        <mxCell id="scVFtFbxgIvjFgvuP5Op-8" style="edgeStyle=orthogonalEdgeStyle;rounded=0;orthogonalLoop=1;jettySize=auto;html=1;" edge="1" parent="1" source="scVFtFbxgIvjFgvuP5Op-10" target="scVFtFbxgIvjFgvuP5Op-12">
          <mxGeometry relative="1" as="geometry" />
        </mxCell>
        <mxCell id="scVFtFbxgIvjFgvuP5Op-9" value="V" style="edgeLabel;html=1;align=center;verticalAlign=middle;resizable=0;points=[];" vertex="1" connectable="0" parent="scVFtFbxgIvjFgvuP5Op-8">
          <mxGeometry x="0.2271" y="1" relative="1" as="geometry">
            <mxPoint x="-1" y="-2" as="offset" />
          </mxGeometry>
        </mxCell>
        <mxCell id="scVFtFbxgIvjFgvuP5Op-10" value="CONTADOR &amp;gt; 0" style="strokeWidth=2;html=1;shape=mxgraph.flowchart.decision;whiteSpace=wrap;" vertex="1" parent="1">
          <mxGeometry x="500" y="290" width="170" height="50" as="geometry" />
        </mxCell>
        <mxCell id="scVFtFbxgIvjFgvuP5Op-11" style="edgeStyle=orthogonalEdgeStyle;rounded=0;orthogonalLoop=1;jettySize=auto;html=1;" edge="1" parent="1" source="scVFtFbxgIvjFgvuP5Op-12" target="scVFtFbxgIvjFgvuP5Op-14">
          <mxGeometry relative="1" as="geometry" />
        </mxCell>
        <mxCell id="scVFtFbxgIvjFgvuP5Op-12" value="RES = NUM * CONTADOR" style="rounded=1;whiteSpace=wrap;html=1;absoluteArcSize=1;arcSize=14;strokeWidth=2;" vertex="1" parent="1">
          <mxGeometry x="480" y="378" width="210" height="36" as="geometry" />
        </mxCell>
        <mxCell id="scVFtFbxgIvjFgvuP5Op-13" style="edgeStyle=orthogonalEdgeStyle;rounded=0;orthogonalLoop=1;jettySize=auto;html=1;" edge="1" parent="1" source="scVFtFbxgIvjFgvuP5Op-14" target="scVFtFbxgIvjFgvuP5Op-15">
          <mxGeometry relative="1" as="geometry" />
        </mxCell>
        <mxCell id="scVFtFbxgIvjFgvuP5Op-14" value="RES" style="strokeWidth=2;html=1;shape=mxgraph.flowchart.display;whiteSpace=wrap;" vertex="1" parent="1">
          <mxGeometry x="535" y="440" width="100" height="40" as="geometry" />
        </mxCell>
        <mxCell id="scVFtFbxgIvjFgvuP5Op-15" value="SUBTRAIR 1 DE CONTADOR" style="rounded=1;whiteSpace=wrap;html=1;absoluteArcSize=1;arcSize=14;strokeWidth=2;" vertex="1" parent="1">
          <mxGeometry x="485" y="511" width="200" height="30" as="geometry" />
        </mxCell>
        <mxCell id="scVFtFbxgIvjFgvuP5Op-16" style="edgeStyle=orthogonalEdgeStyle;rounded=0;orthogonalLoop=1;jettySize=auto;html=1;entryX=0;entryY=0.5;entryDx=0;entryDy=0;entryPerimeter=0;" edge="1" parent="1" source="scVFtFbxgIvjFgvuP5Op-15" target="scVFtFbxgIvjFgvuP5Op-10">
          <mxGeometry relative="1" as="geometry">
            <Array as="points">
              <mxPoint x="430" y="525" />
              <mxPoint x="430" y="315" />
            </Array>
          </mxGeometry>
        </mxCell>
        <mxCell id="scVFtFbxgIvjFgvuP5Op-17" style="edgeStyle=orthogonalEdgeStyle;rounded=0;orthogonalLoop=1;jettySize=auto;html=1;entryX=1;entryY=0.5;entryDx=0;entryDy=0;entryPerimeter=0;" edge="1" parent="1" source="scVFtFbxgIvjFgvuP5Op-10" target="scVFtFbxgIvjFgvuP5Op-3">
          <mxGeometry relative="1" as="geometry">
            <Array as="points">
              <mxPoint x="740" y="315" />
              <mxPoint x="740" y="600" />
              <mxPoint x="630" y="600" />
            </Array>
          </mxGeometry>
        </mxCell>
        <mxCell id="scVFtFbxgIvjFgvuP5Op-18" value="F" style="edgeLabel;html=1;align=center;verticalAlign=middle;resizable=0;points=[];" vertex="1" connectable="0" parent="scVFtFbxgIvjFgvuP5Op-17">
          <mxGeometry x="-0.889" y="-2" relative="1" as="geometry">
            <mxPoint as="offset" />
          </mxGeometry>
        </mxCell>
      </root>
    </mxGraphModel>
  </diagram>
  <diagram id="8zCxFC47Jue_94yXvYNm" name="Salto 2">
    <mxGraphModel dx="1434" dy="780" grid="1" gridSize="10" guides="1" tooltips="1" connect="1" arrows="1" fold="1" page="1" pageScale="1" pageWidth="1169" pageHeight="827" math="0" shadow="0">
      <root>
        <mxCell id="0" />
        <mxCell id="1" parent="0" />
        <mxCell id="bnU09Yx9dPwJlyr7py5s-1" style="edgeStyle=orthogonalEdgeStyle;rounded=0;orthogonalLoop=1;jettySize=auto;html=1;" edge="1" parent="1" source="bnU09Yx9dPwJlyr7py5s-2" target="bnU09Yx9dPwJlyr7py5s-5">
          <mxGeometry relative="1" as="geometry" />
        </mxCell>
        <mxCell id="bnU09Yx9dPwJlyr7py5s-2" value="INICIO" style="strokeWidth=2;html=1;shape=mxgraph.flowchart.start_1;whiteSpace=wrap;" vertex="1" parent="1">
          <mxGeometry x="535" y="50" width="100" height="60" as="geometry" />
        </mxCell>
        <mxCell id="bnU09Yx9dPwJlyr7py5s-3" value="FIM" style="strokeWidth=2;html=1;shape=mxgraph.flowchart.start_1;whiteSpace=wrap;rotation=1;" vertex="1" parent="1">
          <mxGeometry x="530" y="570" width="100" height="60" as="geometry" />
        </mxCell>
        <mxCell id="bnU09Yx9dPwJlyr7py5s-4" style="edgeStyle=orthogonalEdgeStyle;rounded=0;orthogonalLoop=1;jettySize=auto;html=1;" edge="1" parent="1" source="bnU09Yx9dPwJlyr7py5s-5" target="bnU09Yx9dPwJlyr7py5s-7">
          <mxGeometry relative="1" as="geometry" />
        </mxCell>
        <mxCell id="bnU09Yx9dPwJlyr7py5s-5" value="NUM" style="shape=parallelogram;html=1;strokeWidth=2;perimeter=parallelogramPerimeter;whiteSpace=wrap;rounded=1;arcSize=12;size=0.23;" vertex="1" parent="1">
          <mxGeometry x="535" y="150" width="100" height="40" as="geometry" />
        </mxCell>
        <mxCell id="bnU09Yx9dPwJlyr7py5s-6" style="edgeStyle=orthogonalEdgeStyle;rounded=0;orthogonalLoop=1;jettySize=auto;html=1;" edge="1" parent="1" source="bnU09Yx9dPwJlyr7py5s-7" target="bnU09Yx9dPwJlyr7py5s-10">
          <mxGeometry relative="1" as="geometry" />
        </mxCell>
        <mxCell id="bnU09Yx9dPwJlyr7py5s-7" value="CONTADOR = 1" style="rounded=1;whiteSpace=wrap;html=1;absoluteArcSize=1;arcSize=14;strokeWidth=2;" vertex="1" parent="1">
          <mxGeometry x="510" y="230" width="150" height="30" as="geometry" />
        </mxCell>
        <mxCell id="bnU09Yx9dPwJlyr7py5s-8" style="edgeStyle=orthogonalEdgeStyle;rounded=0;orthogonalLoop=1;jettySize=auto;html=1;" edge="1" parent="1" source="bnU09Yx9dPwJlyr7py5s-10" target="bnU09Yx9dPwJlyr7py5s-12">
          <mxGeometry relative="1" as="geometry" />
        </mxCell>
        <mxCell id="bnU09Yx9dPwJlyr7py5s-9" value="V" style="edgeLabel;html=1;align=center;verticalAlign=middle;resizable=0;points=[];" vertex="1" connectable="0" parent="bnU09Yx9dPwJlyr7py5s-8">
          <mxGeometry x="0.2271" y="1" relative="1" as="geometry">
            <mxPoint x="-1" y="-2" as="offset" />
          </mxGeometry>
        </mxCell>
        <mxCell id="bnU09Yx9dPwJlyr7py5s-10" value="CONTADOR &amp;lt;= 100" style="strokeWidth=2;html=1;shape=mxgraph.flowchart.decision;whiteSpace=wrap;" vertex="1" parent="1">
          <mxGeometry x="500" y="290" width="170" height="50" as="geometry" />
        </mxCell>
        <mxCell id="bnU09Yx9dPwJlyr7py5s-11" style="edgeStyle=orthogonalEdgeStyle;rounded=0;orthogonalLoop=1;jettySize=auto;html=1;" edge="1" parent="1" source="bnU09Yx9dPwJlyr7py5s-12" target="bnU09Yx9dPwJlyr7py5s-14">
          <mxGeometry relative="1" as="geometry" />
        </mxCell>
        <mxCell id="bnU09Yx9dPwJlyr7py5s-12" value="RES = NUM * CONTADOR" style="rounded=1;whiteSpace=wrap;html=1;absoluteArcSize=1;arcSize=14;strokeWidth=2;" vertex="1" parent="1">
          <mxGeometry x="480" y="378" width="210" height="36" as="geometry" />
        </mxCell>
        <mxCell id="bnU09Yx9dPwJlyr7py5s-13" style="edgeStyle=orthogonalEdgeStyle;rounded=0;orthogonalLoop=1;jettySize=auto;html=1;" edge="1" parent="1" source="bnU09Yx9dPwJlyr7py5s-14" target="bnU09Yx9dPwJlyr7py5s-15">
          <mxGeometry relative="1" as="geometry" />
        </mxCell>
        <mxCell id="bnU09Yx9dPwJlyr7py5s-14" value="RES" style="strokeWidth=2;html=1;shape=mxgraph.flowchart.display;whiteSpace=wrap;" vertex="1" parent="1">
          <mxGeometry x="535" y="440" width="100" height="40" as="geometry" />
        </mxCell>
        <mxCell id="bnU09Yx9dPwJlyr7py5s-15" value="ADD 2 TO CONTADOR" style="rounded=1;whiteSpace=wrap;html=1;absoluteArcSize=1;arcSize=14;strokeWidth=2;" vertex="1" parent="1">
          <mxGeometry x="485" y="511" width="200" height="30" as="geometry" />
        </mxCell>
        <mxCell id="bnU09Yx9dPwJlyr7py5s-16" style="edgeStyle=orthogonalEdgeStyle;rounded=0;orthogonalLoop=1;jettySize=auto;html=1;entryX=0;entryY=0.5;entryDx=0;entryDy=0;entryPerimeter=0;" edge="1" parent="1" source="bnU09Yx9dPwJlyr7py5s-15" target="bnU09Yx9dPwJlyr7py5s-10">
          <mxGeometry relative="1" as="geometry">
            <Array as="points">
              <mxPoint x="430" y="525" />
              <mxPoint x="430" y="315" />
            </Array>
          </mxGeometry>
        </mxCell>
        <mxCell id="bnU09Yx9dPwJlyr7py5s-17" style="edgeStyle=orthogonalEdgeStyle;rounded=0;orthogonalLoop=1;jettySize=auto;html=1;entryX=1;entryY=0.5;entryDx=0;entryDy=0;entryPerimeter=0;" edge="1" parent="1" source="bnU09Yx9dPwJlyr7py5s-10" target="bnU09Yx9dPwJlyr7py5s-3">
          <mxGeometry relative="1" as="geometry">
            <Array as="points">
              <mxPoint x="740" y="315" />
              <mxPoint x="740" y="600" />
              <mxPoint x="630" y="600" />
            </Array>
          </mxGeometry>
        </mxCell>
        <mxCell id="bnU09Yx9dPwJlyr7py5s-18" value="F" style="edgeLabel;html=1;align=center;verticalAlign=middle;resizable=0;points=[];" vertex="1" connectable="0" parent="bnU09Yx9dPwJlyr7py5s-17">
          <mxGeometry x="-0.889" y="-2" relative="1" as="geometry">
            <mxPoint as="offset" />
          </mxGeometry>
        </mxCell>
      </root>
    </mxGraphModel>
  </diagram>
</mxfile>
